<svg width="160" height="100" viewBox="0 0 160 100" fill="none" xmlns="http://www.w3.org/2000/svg">
<path d="M23.7899 45.8846C23.7899 42.9391 26.1777 40.5513 29.1232 40.5513H93.4565C96.402 40.5513 98.7899 42.9391 98.7899 45.8846V60.2179C98.7899 63.1635 96.402 65.5513 93.4565 65.5513H29.1232C26.1777 65.5513 23.7899 63.1635 23.7899 60.2179V45.8846Z" fill="black" fill-opacity="0.15"/>
<path d="M26.1232 38.5513H90.4565C92.8498 38.5513 94.7899 40.4914 94.7899 42.8846V57.2179C94.7899 59.6112 92.8498 61.5513 90.4565 61.5513H26.1232C23.73 61.5513 21.7899 59.6112 21.7899 57.2179V42.8846C21.7899 40.4914 23.73 38.5513 26.1232 38.5513Z" fill="#A3C1C2" stroke="black" stroke-width="2"/>
<path d="M140.221 50.7584C140.612 50.3679 140.612 49.7347 140.221 49.3442L133.857 42.9802C133.467 42.5897 132.833 42.5897 132.443 42.9802C132.052 43.3707 132.052 44.0039 132.443 44.3944L138.1 50.0513L132.443 55.7081C132.052 56.0986 132.052 56.7318 132.443 57.1223C132.833 57.5129 133.467 57.5129 133.857 57.1223L140.221 50.7584ZM95.7899 51.0513H139.514V49.0513H95.7899V51.0513Z" fill="black"/>
</svg>
