<svg width="160" height="100" viewBox="0 0 160 100" fill="none" xmlns="http://www.w3.org/2000/svg">
<rect x="65.0875" y="44.2819" width="30" height="30" rx="5.33333" fill="black" fill-opacity="0.15"/>
<rect x="63.0875" y="42.2819" width="28" height="28" rx="4.33333" fill="#E48731" stroke="black" stroke-width="2"/>
<path d="M77.4411 16.6464C77.2458 16.4512 76.9292 16.4512 76.734 16.6464L73.552 19.8284C73.3567 20.0237 73.3567 20.3403 73.552 20.5355C73.7473 20.7308 74.0638 20.7308 74.2591 20.5355L77.0875 17.7071L79.916 20.5355C80.1112 20.7308 80.4278 20.7308 80.6231 20.5355C80.8183 20.3403 80.8183 20.0237 80.6231 19.8284L77.4411 16.6464ZM77.5875 42L77.5875 17L76.5875 17L76.5875 42L77.5875 42Z" fill="#3CFF38"/>
<path d="M76.734 82.6354C76.9292 82.8307 77.2458 82.8307 77.4411 82.6354L80.6231 79.4534C80.8183 79.2582 80.8183 78.9416 80.6231 78.7463C80.4278 78.5511 80.1112 78.5511 79.916 78.7463L77.0875 81.5748L74.2591 78.7463C74.0638 78.5511 73.7473 78.5511 73.552 78.7463C73.3567 78.9416 73.3567 79.2582 73.552 79.4534L76.734 82.6354ZM76.5875 57.2819V82.2819H77.5875V57.2819H76.5875Z" fill="black"/>
<path d="M42.6464 70.9283C42.4512 71.1236 42.4512 71.4401 42.6464 71.6354L45.8284 74.8174C46.0237 75.0127 46.3403 75.0127 46.5355 74.8174C46.7308 74.6221 46.7308 74.3055 46.5355 74.1103L43.7071 71.2819L46.5355 68.4534C46.7308 68.2582 46.7308 67.9416 46.5355 67.7463C46.3403 67.5511 46.0237 67.5511 45.8284 67.7463L42.6464 70.9283ZM68 70.7819L43 70.7819L43 71.7819L68 71.7819L68 70.7819Z" fill="#FF3838"/>
<path d="M117.441 56.6354C117.636 56.4402 117.636 56.1236 117.441 55.9283L114.259 52.7463C114.064 52.5511 113.747 52.5511 113.552 52.7463C113.357 52.9416 113.357 53.2582 113.552 53.4534L116.38 56.2819L113.552 59.1103C113.357 59.3055 113.357 59.6221 113.552 59.8174C113.747 60.0127 114.064 60.0127 114.259 59.8174L117.441 56.6354ZM92.0875 56.7819H117.088V55.7819H92.0875V56.7819Z" fill="#4E76DB"/>
</svg>
