<svg width="160" height="100" viewBox="0 0 160 100" fill="none" xmlns="http://www.w3.org/2000/svg">
<path fill-rule="evenodd" clip-rule="evenodd" d="M73.5 43.9999C72.6716 43.9999 72 44.6715 72 45.4999V47.378C70.8989 47.6614 69.859 48.0971 68.9041 48.6614L67.5754 47.3327C66.9896 46.7469 66.0398 46.7469 65.4541 47.3327L63.3327 49.4541C62.747 50.0398 62.747 50.9896 63.3327 51.5754L64.6614 52.9041C64.0972 53.859 63.6614 54.8989 63.3781 55.9999H61.5C60.6716 55.9999 60 56.6715 60 57.4999V60.4999C60 61.3284 60.6716 61.9999 61.5 61.9999H63.3781C63.6614 63.101 64.0972 64.1409 64.6615 65.0959L63.3327 66.4246C62.747 67.0104 62.747 67.9601 63.3327 68.5459L65.4541 70.6672C66.0398 71.253 66.9896 71.253 67.5754 70.6672L68.9041 69.3385C69.859 69.9028 70.8989 70.3385 72 70.6219V72.4999C72 73.3284 72.6716 73.9999 73.5 73.9999H76.5C77.3284 73.9999 78 73.3284 78 72.4999V70.6219C79.1011 70.3385 80.1409 69.9028 81.0959 69.3385L82.4246 70.6673C83.0104 71.253 83.9602 71.253 84.5459 70.6673L86.6673 68.5459C87.253 67.9601 87.253 67.0104 86.6673 66.4246L85.3385 65.0959C85.9028 64.1409 86.3386 63.101 86.6219 61.9999H88.5C89.3284 61.9999 90 61.3284 90 60.4999V57.4999C90 56.6715 89.3284 55.9999 88.5 55.9999H86.6219C86.3386 54.8989 85.9028 53.859 85.3385 52.9041L86.6673 51.5753C87.253 50.9896 87.253 50.0398 86.6673 49.454L84.5459 47.3327C83.9602 46.7469 83.0104 46.7469 82.4246 47.3327L81.0959 48.6614C80.141 48.0971 79.1011 47.6614 78 47.378V45.4999C78 44.6715 77.3284 43.9999 76.5 43.9999H73.5ZM75 65.9999C78.866 65.9999 82 62.8659 82 58.9999C82 55.1339 78.866 51.9999 75 51.9999C71.134 51.9999 68 55.1339 68 58.9999C68 62.8659 71.134 65.9999 75 65.9999Z" fill="black" fill-opacity="0.15"/>
<path fill-rule="evenodd" clip-rule="evenodd" d="M94.9224 33.5421C94.1294 33.8705 93.7528 34.7796 94.0813 35.5726L94.8259 37.3703C93.8843 38.0782 93.0617 38.9076 92.3713 39.8263L90.5727 39.0813C89.7797 38.7528 88.8706 39.1294 88.5421 39.9224L87.3526 42.794C87.0242 43.587 87.4007 44.4961 88.1937 44.8246L89.9924 45.5696C89.8309 46.7074 89.8261 47.8756 89.9914 49.0419L88.1937 49.7865C87.4007 50.115 87.0242 51.0241 87.3526 51.8171L88.5421 54.6887C88.8706 55.4817 89.7797 55.8583 90.5727 55.5298L92.3703 54.7852C93.0782 55.7268 93.9076 56.5494 94.8263 57.2397L94.0813 59.0384C93.7528 59.8314 94.1294 60.7405 94.9224 61.069L97.794 62.2585C98.587 62.5869 99.4961 62.2104 99.8246 61.4174L100.57 59.6187C101.707 59.7802 102.876 59.785 104.042 59.6197L104.787 61.4174C105.115 62.2104 106.024 62.5869 106.817 62.2585L109.689 61.069C110.482 60.7405 110.858 59.8314 110.53 59.0384L109.785 57.2407C110.727 56.5329 111.549 55.7035 112.24 54.7848L114.038 55.5298C114.831 55.8583 115.741 55.4817 116.069 54.6888L117.259 51.8171C117.587 51.0241 117.21 50.115 116.417 49.7866L114.619 49.0415C114.78 47.9037 114.785 46.7355 114.62 45.5692L116.417 44.8245C117.21 44.4961 117.587 43.587 117.258 42.794L116.069 39.9223C115.741 39.1294 114.831 38.7528 114.038 39.0813L112.241 39.8259C111.533 38.8843 110.704 38.0617 109.785 37.3713L110.53 35.5726C110.858 34.7797 110.482 33.8705 109.689 33.5421L106.817 32.3526C106.024 32.0241 105.115 32.4007 104.787 33.1937L104.042 34.9924C102.904 34.8309 101.736 34.8261 100.569 34.9914L99.8246 33.1937C99.4961 32.4007 98.587 32.0241 97.794 32.3526L94.9224 33.5421ZM105.081 54.006C108.782 52.4731 110.539 48.2306 109.006 44.5301C107.473 40.8295 103.231 39.0722 99.5301 40.605C95.8295 42.1378 94.0722 46.3803 95.605 50.0809C97.1379 53.7815 101.38 55.5388 105.081 54.006Z" fill="black" fill-opacity="0.15"/>
<path fill-rule="evenodd" clip-rule="evenodd" d="M50.0255 60.5567C49.5943 60.7353 49.3896 61.2295 49.5682 61.6606L49.973 62.638C49.4611 63.0228 49.0139 63.4737 48.6385 63.9732L47.6607 63.5682C47.2296 63.3896 46.7353 63.5943 46.5567 64.0254L45.9101 65.5866C45.7315 66.0178 45.9362 66.512 46.3673 66.6906L47.3452 67.0956C47.2574 67.7142 47.2548 68.3493 47.3447 68.9834L46.3673 69.3882C45.9362 69.5668 45.7315 70.061 45.9101 70.4921L46.5567 72.0534C46.7353 72.4845 47.2296 72.6892 47.6607 72.5106L48.638 72.1058C49.0228 72.6177 49.4738 73.0649 49.9733 73.4403L49.5682 74.4182C49.3896 74.8493 49.5944 75.3435 50.0255 75.5221L51.5867 76.1688C52.0178 76.3473 52.512 76.1426 52.6906 75.7115L53.0957 74.7336C53.7143 74.8214 54.3493 74.824 54.9834 74.7341L55.3883 75.7115C55.5668 76.1426 56.0611 76.3473 56.4922 76.1688L58.0534 75.5221C58.4845 75.3435 58.6892 74.8493 58.5107 74.4181L58.1058 73.4408C58.6177 73.056 59.065 72.6051 59.4403 72.1056L60.4182 72.5106C60.8493 72.6892 61.3436 72.4845 61.5221 72.0534L62.1688 70.4922C62.3474 70.0611 62.1427 69.5668 61.7116 69.3882L60.7337 68.9832C60.8215 68.3646 60.8241 67.7295 60.7342 67.0954L61.7115 66.6906C62.1427 66.512 62.3474 66.0177 62.1688 65.5866L61.5221 64.0254C61.3436 63.5943 60.8493 63.3896 60.4182 63.5681L59.4409 63.973C59.056 63.4611 58.6051 63.0138 58.1056 62.6385L58.5107 61.6606C58.6892 61.2295 58.4845 60.7353 58.0534 60.5567L56.4922 59.91C56.0611 59.7314 55.5668 59.9362 55.3883 60.3673L54.9832 61.3452C54.3646 61.2574 53.7295 61.2548 53.0954 61.3446L52.6906 60.3673C52.512 59.9362 52.0178 59.7314 51.5867 59.91L50.0255 60.5567ZM55.1953 70.8298C56.7364 70.1914 57.4682 68.4246 56.8298 66.8835C56.1915 65.3424 54.4247 64.6106 52.8836 65.249C51.3425 65.8873 50.6107 67.6541 51.249 69.1952C51.8874 70.7363 53.6541 71.4681 55.1953 70.8298Z" fill="black" fill-opacity="0.15"/>
<path fill-rule="evenodd" clip-rule="evenodd" d="M70.5 41C69.6716 41 69 41.6716 69 42.5V44.3781C67.8989 44.6614 66.859 45.0972 65.9041 45.6615L64.5754 44.3328C63.9896 43.747 63.0398 43.747 62.4541 44.3328L60.3327 46.4541C59.747 47.0399 59.747 47.9896 60.3327 48.5754L61.6614 49.9041C61.0972 50.8591 60.6614 51.8989 60.3781 53H58.5C57.6716 53 57 53.6716 57 54.5V57.5C57 58.3284 57.6716 59 58.5 59H60.3781C60.6614 60.1011 61.0972 61.141 61.6615 62.0959L60.3327 63.4246C59.747 64.0104 59.747 64.9602 60.3327 65.546L62.4541 67.6673C63.0398 68.2531 63.9896 68.2531 64.5754 67.6673L65.9041 66.3386C66.859 66.9028 67.8989 67.3386 69 67.6219V69.5C69 70.3284 69.6716 71 70.5 71H73.5C74.3284 71 75 70.3284 75 69.5V67.6219C76.1011 67.3386 77.1409 66.9028 78.0959 66.3386L79.4246 67.6673C80.0104 68.2531 80.9602 68.2531 81.5459 67.6673L83.6673 65.546C84.253 64.9602 84.253 64.0105 83.6673 63.4247L82.3385 62.0959C82.9028 61.141 83.3386 60.1011 83.6219 59H85.5C86.3284 59 87 58.3284 87 57.5V54.5C87 53.6716 86.3284 53 85.5 53H83.6219C83.3386 51.8989 82.9028 50.859 82.3385 49.9041L83.6673 48.5754C84.253 47.9896 84.253 47.0399 83.6673 46.4541L81.5459 44.3328C80.9602 43.747 80.0104 43.747 79.4246 44.3328L78.0959 45.6615C77.141 45.0972 76.1011 44.6614 75 44.3781V42.5C75 41.6716 74.3284 41 73.5 41H70.5ZM72 63C75.866 63 79 59.866 79 56C79 52.134 75.866 49 72 49C68.134 49 65 52.134 65 56C65 59.866 68.134 63 72 63Z" fill="#777182" stroke="black" stroke-width="2" stroke-linecap="round" stroke-linejoin="round"/>
<path fill-rule="evenodd" clip-rule="evenodd" d="M91.9223 30.5421C91.1294 30.8705 90.7528 31.7796 91.0813 32.5726L91.8259 34.3703C90.8843 35.0782 90.0616 35.9076 89.3713 36.8263L87.5726 36.0813C86.7797 35.7528 85.8705 36.1294 85.5421 36.9224L84.3526 39.794C84.0242 40.587 84.4007 41.4961 85.1937 41.8246L86.9924 42.5696C86.8309 43.7074 86.8261 44.8756 86.9914 46.0419L85.1937 46.7865C84.4007 47.115 84.0241 48.0241 84.3526 48.8171L85.5421 51.6887C85.8705 52.4817 86.7796 52.8583 87.5726 52.5298L89.3703 51.7852C90.0782 52.7268 90.9076 53.5494 91.8263 54.2397L91.0813 56.0384C90.7528 56.8314 91.1294 57.7405 91.9224 58.069L94.794 59.2585C95.587 59.5869 96.4961 59.2104 96.8246 58.4174L97.5696 56.6187C98.7074 56.7802 99.8756 56.785 101.042 56.6197L101.787 58.4174C102.115 59.2104 103.024 59.5869 103.817 59.2585L106.689 58.069C107.482 57.7405 107.858 56.8314 107.53 56.0384L106.785 54.2407C107.727 53.5329 108.549 52.7035 109.24 51.7848L111.038 52.5298C111.831 52.8583 112.741 52.4817 113.069 51.6888L114.258 48.8171C114.587 48.0241 114.21 47.115 113.417 46.7866L111.619 46.0415C111.78 44.9037 111.785 43.7355 111.62 42.5692L113.417 41.8245C114.21 41.4961 114.587 40.587 114.258 39.794L113.069 36.9223C112.741 36.1294 111.831 35.7528 111.038 36.0813L109.241 36.8259C108.533 35.8843 107.704 35.0617 106.785 34.3713L107.53 32.5726C107.858 31.7797 107.482 30.8705 106.689 30.5421L103.817 29.3526C103.024 29.0241 102.115 29.4007 101.787 30.1937L101.041 31.9924C99.9037 31.8309 98.7355 31.8261 97.5692 31.9914L96.8245 30.1937C96.4961 29.4007 95.587 29.0241 94.794 29.3526L91.9223 30.5421ZM102.081 51.006C105.782 49.4731 107.539 45.2306 106.006 41.5301C104.473 37.8295 100.231 36.0722 96.5301 37.605C92.8295 39.1378 91.0722 43.3803 92.605 47.0809C94.1378 50.7815 98.3804 52.5388 102.081 51.006Z" fill="#717A4C" stroke="black" stroke-width="2" stroke-linecap="round" stroke-linejoin="round"/>
<path fill-rule="evenodd" clip-rule="evenodd" d="M47.0255 57.5567C46.5943 57.7352 46.3896 58.2295 46.5682 58.6606L46.973 59.638C46.4611 60.0228 46.0139 60.4737 45.6385 60.9732L44.6607 60.5682C44.2296 60.3896 43.7353 60.5943 43.5567 61.0254L42.9101 62.5866C42.7315 63.0178 42.9362 63.512 43.3673 63.6906L44.3452 64.0956C44.2574 64.7142 44.2548 65.3493 44.3447 65.9834L43.3673 66.3882C42.9362 66.5668 42.7315 67.061 42.9101 67.4921L43.5567 69.0533C43.7353 69.4845 44.2296 69.6892 44.6607 69.5106L45.638 69.1058C46.0228 69.6177 46.4738 70.0649 46.9733 70.4403L46.5682 71.4181C46.3896 71.8493 46.5944 72.3435 47.0255 72.5221L48.5867 73.1688C49.0178 73.3473 49.512 73.1426 49.6906 72.7115L50.0957 71.7336C50.7143 71.8214 51.3493 71.824 51.9834 71.7341L52.3883 72.7115C52.5668 73.1426 53.0611 73.3473 53.4922 73.1687L55.0534 72.5221C55.4845 72.3435 55.6892 71.8492 55.5107 71.4181L55.1058 70.4408C55.6177 70.056 56.065 69.6051 56.4403 69.1056L57.4182 69.5106C57.8493 69.6892 58.3436 69.4845 58.5221 69.0534L59.1688 67.4922C59.3474 67.061 59.1427 66.5668 58.7116 66.3882L57.7337 65.9832C57.8215 65.3646 57.8241 64.7295 57.7342 64.0954L58.7115 63.6905C59.1427 63.512 59.3474 63.0177 59.1688 62.5866L58.5221 61.0254C58.3436 60.5943 57.8493 60.3896 57.4182 60.5681L56.4409 60.973C56.056 60.4611 55.6051 60.0138 55.1056 59.6385L55.5107 58.6606C55.6892 58.2295 55.4845 57.7353 55.0534 57.5567L53.4922 56.91C53.0611 56.7314 52.5668 56.9362 52.3883 57.3673L51.9832 58.3451C51.3646 58.2573 50.7295 58.2547 50.0954 58.3446L49.6906 57.3673C49.512 56.9361 49.0178 56.7314 48.5867 56.91L47.0255 57.5567ZM52.1953 67.8298C53.7364 67.1914 54.4682 65.4246 53.8298 63.8835C53.1915 62.3424 51.4247 61.6106 49.8836 62.2489C48.3425 62.8873 47.6107 64.6541 48.249 66.1952C48.8874 67.7363 50.6541 68.4681 52.1953 67.8298Z" fill="#6E6194" stroke="black" stroke-width="2" stroke-linecap="round" stroke-linejoin="round"/>
</svg>
