<svg width="160" height="100" viewBox="0 0 160 100" fill="none" xmlns="http://www.w3.org/2000/svg">
<path d="M86.617 78.432C86.8156 78.4331 87.0154 78.4131 87.2101 78.3739L89.5166 77.91L91.4122 78.3085C91.8026 78.3906 92.2056 78.3939 92.5974 78.3184L94.7153 77.91L96.7172 78.3127C97.1115 78.392 97.5177 78.3912 97.9116 78.3104L99.8637 77.91L101.796 78.31C102.187 78.3911 102.591 78.3931 102.983 78.316L105.047 77.91L107.097 78.3169C107.483 78.3934 107.879 78.3934 108.265 78.3169L110.315 77.91L112.432 78.3182C112.825 78.3939 113.228 78.3904 113.619 78.3079L115.506 77.91L117.47 78.3117C117.861 78.3917 118.264 78.3928 118.655 78.3151L120.697 77.91L122.651 78.3112C123.041 78.3915 123.444 78.393 123.836 78.3156L125.887 77.91L127.824 78.306C128.233 78.3896 128.655 78.387 129.063 78.2983L130.847 77.91L132.405 78.282C132.821 78.3814 133.254 78.3906 133.674 78.309L135.728 77.91L135.825 77.9305C137.213 78.2233 138.206 79.4477 138.206 80.8658V82.285C138.206 83.9419 136.863 85.285 135.206 85.285H30.4318C28.7749 85.285 27.4318 83.9419 27.4318 82.285V28.5913C27.4318 26.9345 28.7749 25.5913 30.4318 25.5913H31.0758C32.7326 25.5913 34.0669 26.9371 34.1595 28.5914C35.7092 56.2803 58.5771 78.276 86.617 78.432Z" fill="black" fill-opacity="0.15"/>
<path d="M105.46 76.2978L107.318 75.9289L109.243 76.3001C109.766 76.401 110.304 76.3963 110.826 76.2864L112.509 75.9313L114.27 76.2914C114.791 76.398 115.328 76.3996 115.85 76.296L117.693 75.9302L119.449 76.2908C119.971 76.3978 120.508 76.3998 121.03 76.2966L122.884 75.93L124.623 76.2857C125.169 76.3972 125.731 76.3937 126.275 76.2754L127.837 75.9356L129.173 76.2546C129.728 76.3872 130.305 76.3995 130.865 76.2907L132.714 75.9314C133.589 76.1609 134.206 76.9532 134.206 77.8658V79.285C134.206 80.3896 133.31 81.285 132.206 81.285H27.4318C26.3272 81.285 25.4318 80.3896 25.4318 79.285V25.5913C25.4318 24.4867 26.3272 23.5913 27.4318 23.5913H28.0758C29.1662 23.5913 30.0961 24.4862 30.1611 25.6472C31.7402 53.8611 55.0404 76.273 83.6114 76.432C83.8804 76.4335 84.1481 76.4064 84.4073 76.3543L86.5122 75.9309L88.2064 76.2871C88.7271 76.3965 89.2643 76.401 89.7867 76.3003L91.7112 75.9292L93.52 76.293C94.0457 76.3988 94.5873 76.3977 95.1125 76.29L96.8628 75.931L98.5928 76.2893C99.1147 76.3973 99.6529 76.4 100.176 76.2972L102.046 75.9293L103.902 76.2978C104.416 76.3998 104.946 76.3998 105.46 76.2978Z" fill="#FFC700" stroke="black" stroke-width="2" stroke-linecap="round" stroke-linejoin="round"/>
<path d="M83.9172 75.8631L85.9117 75.4619C86.3108 75.3816 86.722 75.3834 87.1204 75.4672L88.4121 75.7387C88.8026 75.8208 89.2055 75.8242 89.5973 75.7486L91.135 75.4521C91.5182 75.3782 91.9121 75.3798 92.2946 75.4567L93.7172 75.7429C94.1114 75.8222 94.5176 75.8214 94.9116 75.7406L96.258 75.4644C96.6576 75.3825 97.0697 75.3829 97.4691 75.4656L98.7955 75.7403C99.187 75.8213 99.5906 75.8233 99.9828 75.7462L101.465 75.4546C101.849 75.3791 102.244 75.3794 102.628 75.4556L104.097 75.7471C104.483 75.8237 104.879 75.8237 105.265 75.7471L106.739 75.4545C107.12 75.379 107.511 75.378 107.891 75.4513L109.432 75.7484C109.825 75.8241 110.228 75.8206 110.619 75.7381L111.896 75.4688C112.298 75.384 112.714 75.3827 113.116 75.4651L114.47 75.7419C114.861 75.8219 115.264 75.8231 115.655 75.7454L117.102 75.4582C117.495 75.3803 117.898 75.3816 118.29 75.4621L119.65 75.7414C120.041 75.8217 120.444 75.8232 120.836 75.7458L122.296 75.4572C122.686 75.38 123.088 75.3813 123.478 75.4611L124.824 75.7362C125.233 75.8199 125.655 75.8172 126.063 75.7285L127.178 75.4857C127.619 75.3899 128.075 75.3946 128.513 75.4992L129.405 75.7122C129.821 75.8116 130.254 75.8209 130.674 75.7393L132.728 75.3402" stroke="#6C0000" stroke-width="2" stroke-linecap="round" stroke-linejoin="round"/>
<path d="M43.2853 33.2472C43.6712 31.0596 48.3736 26.6873 50.806 27.1163" stroke="black" stroke-width="2" stroke-linecap="round"/>
<path d="M39.9313 29.4834C40.3172 27.2958 45.0196 22.9236 47.452 23.3525" stroke="black" stroke-width="2" stroke-linecap="round"/>
<path d="M36.9184 25.7194C37.3042 23.5319 42.0067 19.1596 44.439 19.5886" stroke="black" stroke-width="2" stroke-linecap="round"/>
<path d="M56.2926 32.429C58.7136 30.7512 62.0363 31.3538 63.714 33.7748L69.03 41.4458C70.7077 43.8668 70.1052 47.1895 67.6842 48.8672L60.013 54.1833C57.592 55.8611 54.2693 55.2585 52.5915 52.8375L47.2756 45.1665C45.5978 42.7455 46.2004 39.4228 48.6214 37.745L56.2926 32.429Z" fill="black" fill-opacity="0.15"/>
<path d="M59.8921 31.3444L65.2081 39.0154C66.5712 40.9825 66.0817 43.6822 64.1146 45.0453L56.4434 50.3614C54.4763 51.7246 51.7766 51.235 50.4135 49.2679L45.0975 41.5969C43.7343 39.6298 44.2239 36.9301 46.191 35.567L53.8622 30.2509C55.8293 28.8877 58.529 29.3773 59.8921 31.3444Z" fill="#E88C38" stroke="black" stroke-width="2"/>
</svg>
