<svg width="74" height="29" viewBox="0 0 74 29" fill="none" xmlns="http://www.w3.org/2000/svg">
<path d="M12.3011 17.4737C4.82872 24.8421 -3.19358 11.5553 6.38537 8.2395C6.7538 -1.33945 20.3854 0.871076 17.8064 9.71319C24.4162 11.5492 22.5711 19.2647 16.7222 18.9508M12.3011 17.4737V27.0526M12.3011 17.4737V9.73684" stroke="#35BA5A" stroke-width="2.16632" stroke-linecap="round" stroke-linejoin="round"/>
<circle cx="16.8844" cy="22.2411" r="1.08316" fill="#35BA5A"/>
<path d="M49.3297 13.336C49.0759 13.0761 48.7246 12.8642 48.2844 12.6952C47.8356 12.5171 47.3184 12.4301 46.7357 12.4301C45.5403 12.4301 44.5931 12.8182 43.9151 13.6071C43.2391 14.3877 42.9119 15.4912 42.9119 16.8955C42.9119 18.3911 43.2497 19.5285 43.9546 20.2767L43.9551 20.2772C44.6643 21.0234 45.6631 21.3873 46.9291 21.3873C48.1305 21.3873 49.1077 21.047 49.8444 20.3533L49.8444 20.3534L49.8476 20.3502C49.9312 20.2667 49.997 20.1633 49.997 20.042C49.997 19.9383 49.9538 19.8487 49.8828 19.7777C49.8087 19.7036 49.7152 19.6635 49.6097 19.6635C49.527 19.6635 49.4508 19.6981 49.3859 19.7414L49.3855 19.7409L49.3746 19.7497C49.1615 19.9225 48.9677 20.062 48.7931 20.169C48.6281 20.2701 48.3792 20.3711 48.0389 20.4691C47.7088 20.5643 47.3392 20.6127 46.9291 20.6127C45.8871 20.6127 45.112 20.3092 44.5793 19.7215C44.0674 19.1569 43.7885 18.2969 43.7669 17.1158H49.6888C49.8226 17.1158 49.9477 17.0877 50.0478 17.0143C50.1507 16.9388 50.2089 16.829 50.2319 16.7026L50.2319 16.7026L50.2325 16.6995C50.2578 16.5408 50.2695 16.3114 50.2695 16.0166C50.2695 15.7224 50.2485 15.4392 50.2062 15.1674C50.1628 14.8882 50.0676 14.5773 49.9238 14.2357C49.7764 13.8858 49.5787 13.5852 49.3297 13.336ZM49.3297 13.336C49.3295 13.3357 49.3293 13.3355 49.3291 13.3353L49.223 13.4414L49.3304 13.3367C49.3301 13.3364 49.3299 13.3362 49.3297 13.336ZM32.4919 8.77155L32.492 8.77152L32.4896 8.76813C32.4107 8.65409 32.2955 8.58926 32.1553 8.58926C32.0382 8.58926 31.9372 8.63976 31.8559 8.72108C31.777 8.80005 31.7329 8.89902 31.7329 9.01172V20.877C31.7329 20.9896 31.777 21.0886 31.8559 21.1676L31.8558 21.1677L31.8616 21.173C31.9442 21.2473 32.0434 21.2906 32.1553 21.2906C32.268 21.2906 32.367 21.2466 32.446 21.1676C32.525 21.0886 32.569 20.9896 32.569 20.877V10.3973L39.4914 21.0641L39.4914 21.0641L39.4925 21.0656C39.5861 21.2061 39.7206 21.2906 39.8897 21.2906C40.0097 21.2906 40.1162 21.2467 40.198 21.1589C40.2833 21.0796 40.3298 20.9771 40.3298 20.8594V9.01172C40.3298 8.89617 40.2805 8.79759 40.198 8.72098C40.1214 8.63853 40.0229 8.58926 39.9073 8.58926C39.7904 8.58926 39.6909 8.63969 39.6139 8.72389C39.5367 8.80239 39.4936 8.90035 39.4936 9.01172V19.5024L32.4919 8.77155ZM43.7656 16.9658H43.6156C43.6156 17.0163 43.616 17.0663 43.6169 17.1158L43.7656 16.9658ZM49.3148 14.9719L49.3148 14.9719L49.3154 14.9744C49.3994 15.288 49.4421 15.6351 49.4421 16.0166C49.4421 16.0872 49.4386 16.2038 49.4314 16.3676H43.7722C43.8269 15.3698 44.096 14.6052 44.5643 14.0578C45.0565 13.4891 45.7722 13.1959 46.7357 13.1959C47.2717 13.1959 47.7188 13.2787 48.0816 13.4381L48.0824 13.4384C48.4536 13.5991 48.7245 13.8166 48.9048 14.0871L48.9048 14.0871L48.9068 14.0899C49.1019 14.3687 49.2375 14.6626 49.3148 14.9719ZM51.7299 12.6731L51.7293 12.6738C51.6581 12.7539 51.6211 12.8508 51.6211 12.958C51.6211 12.9891 51.628 13.0216 51.6344 13.0471C51.6415 13.0757 51.6516 13.109 51.664 13.1461L51.6639 13.1461L51.6654 13.1502L54.5475 21.0144C54.5477 21.0148 54.5478 21.0152 54.5479 21.0155C54.5753 21.0932 54.6188 21.1643 54.6855 21.2156C54.7539 21.2681 54.8343 21.2906 54.9176 21.2906C55.0082 21.2906 55.0966 21.2717 55.1725 21.2227C55.25 21.1727 55.3018 21.0996 55.3317 21.0144L55.3318 21.0145L55.3339 21.0076L57.3513 14.2254L59.344 21.0071L59.3438 21.0072L59.3463 21.0144C59.3762 21.0996 59.428 21.1727 59.5055 21.2227C59.5814 21.2717 59.6698 21.2906 59.7604 21.2906C59.8476 21.2906 59.9328 21.2706 60.0059 21.2202C60.0792 21.1696 60.1276 21.0974 60.1564 21.0155C60.1566 21.0152 60.1567 21.0148 60.1569 21.0144L63.0389 13.1502L63.039 13.1503L63.0404 13.1461C63.0655 13.0707 63.0832 12.9969 63.0832 12.9316C63.0832 12.8198 63.0396 12.7215 62.957 12.6467C62.8807 12.5719 62.7843 12.5355 62.6784 12.5355C62.5911 12.5355 62.5059 12.5556 62.4328 12.606C62.3594 12.6566 62.311 12.729 62.2822 12.811C62.2821 12.8113 62.282 12.8115 62.2819 12.8118L59.7742 19.7803L57.7083 12.8056C57.6891 12.7248 57.6464 12.652 57.5738 12.6018C57.5026 12.5524 57.418 12.5355 57.3346 12.5355C57.2539 12.5355 57.173 12.5538 57.1041 12.6034C57.0347 12.6534 56.9926 12.7244 56.9707 12.8022C56.9706 12.8027 56.9705 12.8031 56.9704 12.8036L54.9042 19.7787L52.4137 12.8118C52.4136 12.8116 52.4135 12.8114 52.4135 12.8111C52.3851 12.7305 52.3383 12.6584 52.267 12.6074C52.1954 12.5563 52.1118 12.5355 52.026 12.5355C51.9078 12.5355 51.8073 12.5871 51.7299 12.6731ZM64.4552 9.41899L64.4611 9.42559L64.4677 9.43145C64.5477 9.50264 64.6447 9.53965 64.7519 9.53965H68.3284V20.8594C68.3284 20.9744 68.3699 21.0773 68.4515 21.1588C68.5379 21.2452 68.6462 21.2906 68.7685 21.2906C68.8884 21.2906 68.995 21.2467 69.0768 21.1589C69.162 21.0796 69.2085 20.9771 69.2085 20.8594V9.53965H72.7763C72.8837 9.53965 72.9813 9.50225 73.0581 9.4254C73.1371 9.34643 73.1812 9.24746 73.1812 9.13477C73.1812 9.02291 73.1375 8.92468 73.055 8.84981C72.9786 8.77507 72.8823 8.73867 72.7763 8.73867H64.7519C64.6447 8.73867 64.5477 8.77568 64.4677 8.84687L64.4675 8.84668L64.4612 8.85292C64.3844 8.92976 64.347 9.02735 64.347 9.13477C64.347 9.24196 64.384 9.3389 64.4552 9.41899Z" fill="white" stroke="white" stroke-width="0.3"/>
</svg>
