<svg width="24" height="24" viewBox="0 0 24 24" fill="none" xmlns="http://www.w3.org/2000/svg">
<path d="M4.21381 5.92433C4.27251 5.57217 4.4989 5.1655 4.89299 4.70434C5.28707 4.24317 5.77339 4.0084 6.35195 4.00001C6.64542 4.00001 6.91373 4.07547 7.15689 4.2264C7.40005 4.37733 7.58033 4.56599 7.69771 4.79238C8.04988 4.26413 8.47331 4.00001 8.96802 4.00001C9.27826 4.00001 9.54657 4.09224 9.77296 4.27671C9.99935 4.46118 10.1167 4.70853 10.1251 5.01877C10.1251 5.26193 10.0664 5.45897 9.94904 5.6099C9.83166 5.76083 9.71846 5.85306 9.60946 5.8866C9.50046 5.92014 9.40403 5.93691 9.32018 5.93691C9.16087 5.93691 9.0309 5.89079 8.93029 5.79856C8.82967 5.70633 8.77936 5.58475 8.77936 5.43382C8.77936 5.04812 8.98898 4.78399 9.40822 4.64145C9.31599 4.53245 9.14829 4.47795 8.90513 4.47795C8.79613 4.47795 8.71647 4.48633 8.66616 4.5031C8.34754 4.63726 8.11276 4.91396 7.96184 5.3332C7.45875 7.18625 7.2072 8.26789 7.2072 8.57813C7.2072 8.81291 7.27428 8.98061 7.40844 9.08122C7.5426 9.18184 7.68933 9.23215 7.84864 9.23215C8.15888 9.23215 8.46493 9.0938 8.76678 8.8171C9.06864 8.5404 9.27406 8.20082 9.38307 7.79834C9.40822 7.7145 9.43338 7.66838 9.45853 7.65999C9.48369 7.65161 9.55076 7.64322 9.65977 7.63484H9.71008C9.83585 7.63484 9.89874 7.66838 9.89874 7.73546C9.89874 7.74384 9.89035 7.78996 9.87358 7.87381C9.73942 8.35174 9.47949 8.77518 9.09379 9.14411C8.70809 9.51304 8.2595 9.69751 7.74802 9.69751C7.16108 9.69751 6.71669 9.43339 6.41483 8.90514C6.07106 9.425 5.67697 9.68493 5.23257 9.68493H5.15711C4.74625 9.68493 4.45278 9.57593 4.2767 9.35792C4.10062 9.13992 4.00838 8.90933 4 8.66617C4 8.39786 4.07966 8.17985 4.23897 8.01216C4.39828 7.84446 4.58694 7.76061 4.80494 7.76061C5.16549 7.76061 5.34577 7.93669 5.34577 8.28886C5.34577 8.45655 5.29546 8.60329 5.19484 8.72906C5.09422 8.85483 4.9978 8.93868 4.90556 8.98061C4.81333 9.02253 4.75883 9.04349 4.74206 9.04349L4.70433 9.05607C4.70433 9.06445 4.72948 9.08122 4.77979 9.10638C4.8301 9.13153 4.89718 9.16088 4.98103 9.19442C5.06487 9.22796 5.14453 9.24054 5.21999 9.23215C5.52185 9.23215 5.78178 9.04349 5.99978 8.66617C6.07525 8.53202 6.17167 8.24693 6.28906 7.81092C6.40645 7.37491 6.52384 6.92213 6.64122 6.45258C6.75861 5.98303 6.82569 5.70633 6.84246 5.62248C6.88439 5.39609 6.90535 5.23258 6.90535 5.13196C6.90535 4.89719 6.84246 4.72949 6.71669 4.62887C6.59092 4.52826 6.44837 4.47795 6.28906 4.47795C5.95367 4.47795 5.63924 4.6121 5.34577 4.88042C5.0523 5.14873 4.84687 5.49251 4.72948 5.91175C4.71271 5.98722 4.69175 6.02914 4.66659 6.03753C4.64144 6.04591 4.57436 6.0543 4.46536 6.06268H4.28928C4.23897 6.01237 4.21381 5.96626 4.21381 5.92433Z" fill="black" stroke="black" stroke-width="0.6" stroke-linecap="round" stroke-linejoin="round"/>
<path d="M5.91174 14.7924C5.91174 14.5828 5.83209 14.4779 5.67278 14.4779C5.47154 14.4779 5.26192 14.5995 5.04391 14.8427C4.82591 15.0858 4.64563 15.459 4.50309 15.9621C4.49471 15.9704 4.48632 15.983 4.47794 15.9998C4.46955 16.0166 4.46536 16.0291 4.46536 16.0375C4.46536 16.0459 4.45697 16.0543 4.4402 16.0627C4.42343 16.0711 4.41086 16.0753 4.40247 16.0753C4.39409 16.0753 4.37732 16.0753 4.35216 16.0753C4.32701 16.0753 4.29347 16.0753 4.25155 16.0753H4.07546C4.02515 16.0249 4 15.9872 4 15.9621C4 15.9034 4.03354 15.7818 4.10062 15.5973C4.1677 15.4129 4.26831 15.1948 4.40247 14.9433C4.53663 14.6918 4.7211 14.4779 4.95587 14.3019C5.19065 14.1258 5.45477 14.0335 5.74824 14.0252C6.1004 14.0252 6.37291 14.1258 6.56576 14.327C6.75861 14.5283 6.85923 14.763 6.86762 15.0313C6.86762 15.1739 6.85504 15.2829 6.82988 15.3584C6.82988 15.4087 6.767 15.5931 6.64122 15.9118C6.51545 16.2304 6.38549 16.6035 6.25133 17.0311C6.11717 17.4588 6.04171 17.8319 6.02494 18.1505C6.02494 18.3769 6.0459 18.5614 6.08783 18.7039C6.19683 19.0645 6.46095 19.2447 6.88019 19.2447C7.19043 19.2447 7.47971 19.1022 7.74802 18.8171C8.01634 18.532 8.22596 18.2008 8.37689 17.8235C8.52781 17.4462 8.64939 17.0982 8.74163 16.7796C8.83386 16.461 8.87998 16.2304 8.87998 16.0878C8.87998 15.895 8.84644 15.7273 8.77936 15.5847C8.71228 15.4422 8.63682 15.3332 8.55297 15.2577C8.46912 15.1823 8.39366 15.1068 8.32658 15.0313C8.2595 14.9559 8.22596 14.8636 8.22596 14.7546C8.22596 14.5702 8.30562 14.3983 8.46493 14.239C8.62424 14.0797 8.79613 14 8.9806 14C9.13991 14 9.28245 14.0755 9.40822 14.2264C9.534 14.3773 9.60107 14.6205 9.60946 14.9559C9.60946 15.1823 9.55915 15.5302 9.45853 15.9998C9.35791 16.4693 9.20279 16.9934 8.99317 17.5719C8.78355 18.1505 8.48589 18.6494 8.10019 19.0686C7.71448 19.4879 7.27009 19.7017 6.767 19.7101C6.23037 19.7101 5.80274 19.5717 5.48412 19.295C5.17388 19.0267 5.01876 18.6284 5.01876 18.1002C5.01876 17.8403 5.0523 17.5719 5.11938 17.2952C5.18646 17.0185 5.35834 16.528 5.63504 15.8237C5.81951 15.2871 5.91174 14.9433 5.91174 14.7924Z" fill="black" stroke="black" stroke-width="0.6" stroke-linecap="round" stroke-linejoin="round"/>
<path d="M15.088 15.0311C15.0293 14.9724 15 14.9305 15 14.9054C15 14.8718 15.0126 14.8047 15.0377 14.7041C15.0629 14.6035 15.0838 14.5448 15.1006 14.528C15.1174 14.4861 15.1551 14.4651 15.2138 14.4651C15.2725 14.4651 15.4863 14.461 15.8553 14.4526H16.5218L16.7608 13.4464C16.786 13.3542 16.8153 13.2326 16.8489 13.0816C16.8824 12.9307 16.9117 12.8217 16.9369 12.7546C16.9621 12.6876 16.9872 12.6037 17.0124 12.5031C17.0375 12.4025 17.0711 12.3312 17.113 12.2893C17.1549 12.2474 17.1968 12.197 17.2388 12.1384C17.2807 12.0797 17.3394 12.0419 17.4148 12.0252C17.4903 12.0084 17.5658 12 17.6412 12C17.7922 12.0084 17.897 12.0545 17.9557 12.1384C18.0143 12.2222 18.0437 12.3019 18.0437 12.3773C18.0437 12.436 18.006 12.6331 17.9305 12.9685C17.855 13.3038 17.7712 13.635 17.679 13.9621L17.5532 14.4274C17.5532 14.4442 17.7628 14.4526 18.182 14.4526H18.8235C18.8822 14.5113 18.9115 14.5574 18.9115 14.5909C18.9115 14.7754 18.857 14.9221 18.748 15.0311H17.4023L16.9495 16.8548C16.6225 18.1964 16.459 18.9175 16.459 19.0181C16.459 19.3703 16.5722 19.5464 16.7985 19.5464C17.092 19.5464 17.3771 19.4038 17.6538 19.1187C17.9305 18.8336 18.1527 18.4815 18.3204 18.0622C18.3372 18.0119 18.3581 17.9826 18.3833 17.9742C18.4084 17.9658 18.4713 17.9574 18.5719 17.949H18.6223C18.748 17.949 18.8109 17.9826 18.8109 18.0497C18.8109 18.0748 18.7983 18.1251 18.7732 18.2006C18.7313 18.3348 18.6558 18.4941 18.5468 18.6785C18.4378 18.863 18.2952 19.06 18.1192 19.2697C17.9431 19.4793 17.7293 19.6554 17.4777 19.7979C17.2262 19.9404 16.9704 20.0117 16.7105 20.0117C16.459 20.0117 16.22 19.9488 15.9936 19.8231C15.7672 19.6973 15.6037 19.4793 15.5031 19.169C15.4863 19.102 15.4779 18.9888 15.4779 18.8295V18.6031L15.9181 16.8422C16.2116 15.66 16.3625 15.0647 16.3709 15.0563C16.3709 15.0395 16.1571 15.0311 15.7295 15.0311H15.088Z" fill="black" stroke="black" stroke-width="0.6" stroke-linecap="round" stroke-linejoin="round"/>
<path d="M15 7.21959C15 6.45626 15.2872 5.73072 15.8616 5.04297C16.436 4.35522 17.0821 4.00757 17.8001 4.00001C18.1856 4.00001 18.5257 4.18517 18.8204 4.5555C18.9413 4.32877 19.1152 4.21541 19.3419 4.21541C19.4401 4.21541 19.5271 4.24564 19.6026 4.3061C19.6782 4.36656 19.716 4.44214 19.716 4.53283C19.716 4.63108 19.5762 5.23569 19.2966 6.34668C19.0169 7.45766 18.8733 8.08495 18.8658 8.22854C18.8658 8.41748 18.8922 8.54219 18.9451 8.60265C18.998 8.66311 19.0774 8.69712 19.1832 8.70468C19.2512 8.69712 19.3268 8.66311 19.4099 8.60265C19.5686 8.45149 19.7236 8.08873 19.8747 7.51434C19.9201 7.36319 19.9578 7.28383 19.9881 7.27627C20.0032 7.26872 20.041 7.26494 20.1014 7.26494H20.1468C20.2904 7.26494 20.3622 7.29895 20.3622 7.36697C20.3622 7.41231 20.3433 7.51434 20.3055 7.67305C20.2677 7.83176 20.1921 8.03582 20.0788 8.28523C19.9654 8.53463 19.8445 8.72357 19.716 8.85205C19.6178 8.9503 19.4968 9.02966 19.3532 9.09012C19.2928 9.10524 19.2021 9.11279 19.0812 9.11279C18.8242 9.11279 18.6088 9.05611 18.435 8.94274C18.2611 8.82938 18.1478 8.71224 18.0949 8.59131L18.0269 8.42126C18.0193 8.41371 18.0042 8.41748 17.9815 8.4326C17.9664 8.44772 17.9513 8.46283 17.9362 8.47795C17.4903 8.90118 17.0368 9.11279 16.5758 9.11279C16.1601 9.11279 15.7936 8.96164 15.4761 8.65933C15.1587 8.35702 15 7.87711 15 7.21959ZM18.605 5.28104C18.605 5.23569 18.5861 5.15256 18.5483 5.03164C18.5105 4.91071 18.4236 4.77845 18.2876 4.63486C18.1516 4.49126 17.9777 4.41568 17.7661 4.40813C17.5016 4.40813 17.2484 4.52527 17.0066 4.75956C16.7647 4.99385 16.5758 5.29994 16.4397 5.67782C16.2206 6.27488 16.0656 6.89461 15.9749 7.53701C15.9749 7.55969 15.9749 7.60125 15.9749 7.66172C15.9749 7.72218 15.9712 7.76752 15.9636 7.79775C15.9636 8.13785 16.0316 8.37214 16.1677 8.50062C16.3037 8.6291 16.4662 8.69712 16.6551 8.70468C16.9423 8.70468 17.2257 8.57998 17.5054 8.33057C17.785 8.08117 17.9513 7.88845 18.0042 7.75241C18.0193 7.72218 18.1213 7.31784 18.3103 6.5394C18.4992 5.76095 18.5975 5.3415 18.605 5.28104Z" fill="black" stroke="black" stroke-width="0.6" stroke-linecap="round" stroke-linejoin="round"/>
</svg>
