<svg width="24" height="24" viewBox="0 0 24 24" fill="none" xmlns="http://www.w3.org/2000/svg">
<rect x="14" y="5" width="8" height="3" rx="1.5" fill="black"/>
<rect x="14" y="16.6667" width="8" height="2.66667" rx="1.33333" fill="black"/>
<rect x="16.6666" y="19.3333" width="2.66667" height="2.66667" rx="1.33333" fill="black"/>
<rect x="16.6666" y="14" width="2.66667" height="2.66667" rx="1.33333" fill="black"/>
<path fill-rule="evenodd" clip-rule="evenodd" d="M7.33325 3.33333C7.33325 2.59695 6.7363 2 5.99992 2C5.26354 2 4.66659 2.59695 4.66659 3.33333V4.66669H3.33333C2.59695 4.66669 2 5.26364 2 6.00002C2 6.7364 2.59695 7.33335 3.33333 7.33335H4.66659V8.66667C4.66659 9.40305 5.26354 10 5.99992 10C6.7363 10 7.33325 9.40305 7.33325 8.66667V7.33335H8.66667C9.40305 7.33335 10 6.7364 10 6.00002C10 5.26364 9.40305 4.66669 8.66667 4.66669H7.33325V3.33333Z" fill="black"/>
<path fill-rule="evenodd" clip-rule="evenodd" d="M5.05727 15.1716C4.53657 14.6509 3.69235 14.6509 3.17165 15.1716C2.65096 15.6923 2.65096 16.5365 3.17165 17.0572L4.1144 18L3.17153 18.9428C2.65083 19.4635 2.65083 20.3078 3.17153 20.8285C3.69223 21.3492 4.53645 21.3492 5.05715 20.8285L6.00002 19.8856L6.94289 20.8284C7.46359 21.3491 8.30781 21.3491 8.82851 20.8284C9.34921 20.3077 9.34921 19.4635 8.82851 18.9428L7.88564 18L8.82838 17.0572C9.34908 16.5365 9.34908 15.6923 8.82838 15.1716C8.30769 14.6509 7.46347 14.6509 6.94277 15.1716L6.00002 16.1143L5.05727 15.1716Z" fill="black"/>
</svg>
