<svg width="400" height="400" viewBox="0 0 400 400" fill="none" xmlns="http://www.w3.org/2000/svg">
<path d="M43 35V365H373" stroke="black" stroke-width="8" stroke-linecap="round" stroke-linejoin="round"/>
<path d="M160.694 35.9842L160.828 36.5036L160.979 35.9842L168.653 14.6057H170.914L161.834 39H159.857L150.776 14.6057H153.021L160.694 35.9842ZM179.744 28.227L184.636 20.8718H187.015L180.867 29.7684L187.283 39H184.921L179.761 31.3265L174.6 39H172.238L178.638 29.7684L172.489 20.8718H174.852L179.744 28.227ZM204.725 36.2355L210.237 20.8718H212.298L205.529 39H203.904L197.101 20.8718H199.162L204.725 36.2355ZM226.455 34.3926C226.455 33.3985 226.053 32.5999 225.249 31.9967C224.456 31.3935 223.255 30.9244 221.646 30.5893C220.038 30.2431 218.787 29.8521 217.894 29.4165C217.011 28.9698 216.352 28.428 215.917 27.7914C215.492 27.1547 215.28 26.384 215.28 25.4793C215.28 24.0496 215.877 22.8712 217.073 21.9441C218.268 21.0059 219.798 20.5368 221.663 20.5368C223.685 20.5368 225.305 21.0394 226.522 22.0446C227.751 23.0387 228.365 24.34 228.365 25.9484H226.354C226.354 24.8873 225.908 24.0049 225.014 23.3012C224.132 22.5975 223.015 22.2457 221.663 22.2457C220.345 22.2457 219.284 22.5417 218.48 23.1337C217.687 23.7145 217.29 24.474 217.29 25.4123C217.29 26.317 217.62 27.0207 218.279 27.5233C218.949 28.0148 220.161 28.4671 221.915 28.8804C223.679 29.2937 224.997 29.7349 225.869 30.204C226.751 30.6731 227.404 31.2372 227.829 31.8962C228.253 32.5552 228.465 33.3538 228.465 34.292C228.465 35.8223 227.846 37.0453 226.606 37.9612C225.377 38.8771 223.769 39.3351 221.781 39.3351C219.669 39.3351 217.955 38.8269 216.637 37.8104C215.33 36.7828 214.677 35.4872 214.677 33.9234H216.687C216.765 35.0962 217.257 36.0121 218.162 36.6712C219.077 37.319 220.284 37.6429 221.781 37.6429C223.177 37.6429 224.305 37.3357 225.165 36.7214C226.025 36.1071 226.455 35.3308 226.455 34.3926ZM244.449 16.2309V20.8718H248.202V22.5138H244.449V34.5936C244.449 35.5989 244.628 36.3472 244.985 36.8387C245.354 37.3302 245.963 37.5759 246.811 37.5759C247.147 37.5759 247.688 37.52 248.437 37.4083L248.52 39.0503C247.995 39.2401 247.281 39.3351 246.376 39.3351C245.002 39.3351 244.002 38.9386 243.377 38.1455C242.751 37.3413 242.439 36.1629 242.439 34.6104V22.5138H239.104V20.8718H242.439V16.2309H244.449Z" fill="black"/>
<path d="M43 361C314 285 43 361 314 285" stroke="#0054B6" stroke-width="8" stroke-linecap="round" stroke-linejoin="round"/>
</svg>
