<svg width="400" height="400" viewBox="0 0 400 400" fill="none" xmlns="http://www.w3.org/2000/svg">
<path d="M43 35V365H373" stroke="black" stroke-width="8" stroke-linecap="round" stroke-linejoin="round"/>
<path d="M160.868 35.9184L161.002 36.4393L161.153 35.9184L168.849 14.4789H171.117L162.01 38.9428H160.028L150.921 14.4789H153.172L160.868 35.9184ZM179.821 36.0528L185.13 20.7629H187.298L179.535 42.0344L179.132 42.9753C178.135 45.182 176.595 46.2854 174.511 46.2854C174.029 46.2854 173.514 46.2069 172.965 46.0501L172.948 44.3867L173.99 44.4875C174.976 44.4875 175.771 44.2411 176.376 43.7482C176.992 43.2666 177.513 42.4321 177.939 41.2447L178.829 38.7916L171.974 20.7629H174.175L179.821 36.0528ZM204.453 36.1705L209.98 20.7629H212.047L205.259 38.9428H203.629L196.808 20.7629H198.874L204.453 36.1705ZM226.245 34.3222C226.245 33.3253 225.842 32.5244 225.035 31.9195C224.24 31.3146 223.036 30.8442 221.423 30.5081C219.81 30.1609 218.555 29.7688 217.659 29.332C216.774 28.8839 216.113 28.3406 215.676 27.7022C215.251 27.0637 215.038 26.2908 215.038 25.3835C215.038 23.9497 215.637 22.7679 216.836 21.8382C218.034 20.8973 219.569 20.4268 221.44 20.4268C223.467 20.4268 225.091 20.9309 226.312 21.939C227.544 22.9359 228.16 24.2409 228.16 25.8539H226.144C226.144 24.7898 225.696 23.9049 224.8 23.1992C223.915 22.4935 222.795 22.1406 221.44 22.1406C220.118 22.1406 219.054 22.4375 218.247 23.0312C217.452 23.6136 217.054 24.3753 217.054 25.3163C217.054 26.2236 217.385 26.9293 218.046 27.4333C218.718 27.9262 219.933 28.3798 221.692 28.7943C223.461 29.2088 224.783 29.6512 225.657 30.1217C226.542 30.5921 227.197 31.1578 227.623 31.8187C228.048 32.4796 228.261 33.2805 228.261 34.2214C228.261 35.756 227.64 36.9826 226.396 37.9011C225.164 38.8196 223.551 39.2789 221.557 39.2789C219.44 39.2789 217.721 38.7692 216.399 37.7499C215.088 36.7193 214.433 35.42 214.433 33.8518H216.449C216.528 35.0279 217.021 35.9464 217.928 36.6073C218.846 37.257 220.056 37.5818 221.557 37.5818C222.957 37.5818 224.089 37.2738 224.951 36.6577C225.814 36.0416 226.245 35.2631 226.245 34.3222ZM244.291 16.1087V20.7629H248.054V22.4095H244.291V34.5238C244.291 35.532 244.47 36.2825 244.828 36.7753C245.198 37.2682 245.808 37.5146 246.66 37.5146C246.996 37.5146 247.539 37.4586 248.289 37.3466L248.373 38.9932C247.847 39.1836 247.13 39.2789 246.223 39.2789C244.845 39.2789 243.842 38.8812 243.215 38.0859C242.588 37.2794 242.274 36.0976 242.274 34.5406V22.4095H238.931V20.7629H242.274V16.1087H244.291Z" fill="black"/>
<path d="M43 165C154.439 527.219 270.1 315.925 314 165" stroke="#0054B6" stroke-width="8" stroke-linecap="round" stroke-linejoin="round"/>
</svg>
